Fungal-Grow 0 Thickness 1000.ufo
<glyph name="D" format="1">
  <advance width="1577"/>
  <unicode hex="0044"/>
  <outline>
    <contour>
      <point x="403" y="1327" type="line"/>
      <point x="403" y="166" type="line"/>
      <point x="647" y="166" type="line" smooth="yes"/>
      <point x="1059" y="166"/>
      <point x="1243" y="345.333"/>
      <point x="1243" y="748" type="curve" smooth="yes"/>
      <point x="1243" y="1148"/>
      <point x="1059" y="1327"/>
      <point x="647" y="1327" type="curve" smooth="yes"/>
      <point x="403" y="1327" type="line"/>
    </contour>
    <contour>
      <point x="201" y="1493" type="line"/>
      <point x="616" y="1493" type="line" smooth="yes"/>
      <point x="1194.667" y="1493"/>
      <point x="1456" y="1260"/>
      <point x="1456" y="748" type="curve" smooth="yes"/>
      <point x="1456" y="233.333"/>
      <point x="1192" y="0"/>
      <point x="616" y="0" type="curve" smooth="yes"/>
      <point x="201" y="0" type="line"/>
      <point x="201" y="1493" type="line"/>
    </contour>
    <component base="blob1" xScale="0" xyScale="1.2886" yScale="0" yxScale="1.2886" xOffset="728" yOffset="1314"/>
    <component base="blob2" xScale="0" xyScale="1" yScale="0" yxScale="1" xOffset="269" yOffset="1656"/>
    <component base="blob3" xScale="0" xyScale="1" yScale="0" yxScale="1" xOffset="130" yOffset="2067"/>
    <component base="blob4" xScale="0" xyScale="0.8783" yScale="0" yxScale="0.8783" xOffset="195" yOffset="2491"/>
    <component base="blob5" xScale="0" xyScale="0.8293" yScale="0" yxScale="0.8293" xOffset="286" yOffset="2904"/>
    <component base="blob6" xScale="0" xyScale="1.1539" yScale="0" yxScale="1.1539" xOffset="674" yOffset="3206"/>
    <component base="blob7" xScale="0" xyScale="0.9753" yScale="0" yxScale="0.9753" xOffset="1079" yOffset="3560"/>
    <component base="blob8" xScale="0" xyScale="0.7047" yScale="0" yxScale="0.7047" xOffset="1492" yOffset="3556"/>
    <component base="blob9" xScale="0" xyScale="0.4869" yScale="0" yxScale="0.4869" xOffset="1705" yOffset="3459"/>
    <component base="blob2" xScale="0" xyScale="1" yScale="0" yxScale="1" xOffset="1037" yOffset="925"/>
    <component base="blob3" xScale="0" xyScale="1" yScale="0" yxScale="1" xOffset="985" yOffset="568"/>
    <component base="blob4" xScale="0" xyScale="0.8783" yScale="0" yxScale="0.8783" xOffset="676" yOffset="293"/>
    <component base="blob5" xScale="0" xyScale="0.8293" yScale="0" yxScale="0.8293" xOffset="534" yOffset="585"/>
    <component base="blob6" xScale="0" xyScale="1.1539" yScale="0" yxScale="-1.1539" xOffset="520" yOffset="981"/>
    <contour>
      <point x="748" y="1520" type="move" name="above"/>
    </contour>
    <contour>
      <point x="748" y="0" type="move" name="below"/>
    </contour>
    <contour>
      <point x="557" y="0" type="move" name="cedilla"/>
    </contour>
    <contour>
      <point x="0" y="1520" type="move" name="half"/>
    </contour>
  </outline>
</glyph>
<glyph name="N" format="1">
  <advance width="1532"/>
  <unicode hex="004E"/>
  <outline>
    <contour>
      <point x="201" y="1493" type="line"/>
      <point x="473" y="1493" type="line"/>
      <point x="1135" y="244" type="line"/>
      <point x="1135" y="1493" type="line"/>
      <point x="1331" y="1493" type="line"/>
      <point x="1331" y="0" type="line"/>
      <point x="1059" y="0" type="line"/>
      <point x="397" y="1249" type="line"/>
      <point x="397" y="0" type="line"/>
      <point x="201" y="0" type="line"/>
      <point x="201" y="1493" type="line"/>
    </contour>
    <component base="blob1" xScale="0" xyScale="1.2886" yScale="0" yxScale="-1.2886" xOffset="213" yOffset="-216"/>
    <component base="blob2" xScale="0" xyScale="1" yScale="0" yxScale="-1" xOffset="135" yOffset="300"/>
    <component base="blob3" xScale="0" xyScale="1" yScale="0" yxScale="-1" xOffset="258" yOffset="694"/>
    <component base="blob4" xScale="0" xyScale="0.8783" yScale="0" yxScale="-0.8783" xOffset="259" yOffset="1131"/>
    <component base="blob2" xScale="0" xyScale="1.2302" yScale="0" yxScale="-1.2302" xOffset="379" yOffset="-810"/>
    <component base="blob3" xScale="0" xyScale="1" yScale="0" yxScale="-1" xOffset="134" yOffset="-1301"/>
    <component base="blob4" xScale="0" xyScale="0.8783" yScale="0" yxScale="-0.8783" xOffset="-231" yOffset="-1601"/>
    <component base="blob5" xScale="0" xyScale="1.0354" yScale="0" yxScale="-1.0354" xOffset="-563" yOffset="-1947"/>
    <component base="blob6" xScale="0" xyScale="1.1539" yScale="0" yxScale="-1.1539" xOffset="-751" yOffset="-2456"/>
    <component base="blob7" xScale="0" xyScale="0.9753" yScale="0" yxScale="-0.9753" xOffset="-1038" yOffset="-2886"/>
    <component base="blob8" xScale="0" xyScale="0.8782" yScale="0" yxScale="-0.8782" xOffset="-1057" yOffset="-3295"/>
    <component base="blob9" xScale="0" xyScale="0.4869" yScale="0" yxScale="-0.4869" xOffset="-1035" yOffset="-3582"/>
    <component base="blob5" xScale="0" xyScale="0.8824" yScale="0" yxScale="-0.8824" xOffset="610" yOffset="1318"/>
    <component base="blob6" xScale="0" xyScale="1.1539" yScale="0" yxScale="-1.1539" xOffset="1072" yOffset="1102"/>
    <component base="blob7" xScale="0" xyScale="0.9753" yScale="0" yxScale="-0.9753" xOffset="1593" yOffset="1095"/>
    <component base="blob8" xScale="0" xyScale="0.8782" yScale="0" yxScale="-0.8782" xOffset="1948" yOffset="1373"/>
    <component base="blob9" xScale="0" xyScale="0.4869" yScale="0" yxScale="-0.4869" xOffset="2077" yOffset="1666"/>
    <contour>
      <point x="757" y="1520" type="move" name="above"/>
    </contour>
    <contour>
      <point x="757" y="0" type="move" name="below"/>
    </contour>
    <contour>
      <point x="299" y="0" type="move" name="cedilla"/>
    </contour>
    <contour>
      <point x="0" y="1520" type="move" name="half"/>
    </contour>
  </outline>
</glyph>
<glyph name="o" format="1">
  <advance width="1253"/>
  <unicode hex="006F"/>
  <outline>
    <contour>
      <point x="627" y="991" type="curve"/>
      <point x="627" y="991" type="line"/>
      <point x="429.667" y="991"/>
      <point x="307" y="827"/>
      <point x="307" y="559" type="curve" smooth="yes"/>
      <point x="307" y="291"/>
      <point x="428.333" y="127"/>
      <point x="627" y="127" type="curve" smooth="yes"/>
      <point x="823" y="127"/>
      <point x="946" y="292.333"/>
      <point x="946" y="559" type="curve" smooth="yes"/>
      <point x="946" y="824.333"/>
      <point x="823" y="991"/>
    </contour>
    <contour>
      <point x="627" y="1147" type="curve"/>
      <point x="627" y="1147" type="line"/>
      <point x="947" y="1147"/>
      <point x="1141" y="927"/>
      <point x="1141" y="559" type="curve" smooth="yes"/>
      <point x="1141" y="192.333"/>
      <point x="947" y="-29"/>
      <point x="627" y="-29" type="curve" smooth="yes"/>
      <point x="305.667" y="-29"/>
      <point x="113" y="192.333"/>
      <point x="113" y="559" type="curve" smooth="yes"/>
      <point x="113" y="927"/>
      <point x="305.667" y="1147"/>
    </contour>
    <component base="blob1" xScale="1.2886" yScale="-1.2886" xOffset="181" yOffset="-43"/>
    <component base="blob2" yScale="-1" xOffset="126" yOffset="-267"/>
    <component base="blob3" yScale="-1" xOffset="-101" yOffset="-376"/>
    <component base="blob4" xScale="0.6152" yScale="-0.6152" xOffset="-228" yOffset="-491"/>
    <component base="blob5" xScale="0.7169" yScale="-0.7169" xOffset="-217" yOffset="-638"/>
    <component base="blob6" xScale="0.7136" yScale="-0.7136" xOffset="-358" yOffset="-749"/>
    <component base="blob7" xScale="1.0734" yScale="-1.0734" xOffset="-583" yOffset="-814"/>
    <component base="blob8" xScale="0.9279" yScale="-0.9279" xOffset="-803" yOffset="-825"/>
    <component base="blob9" xScale="0.4869" yScale="-0.4869" xOffset="-893" yOffset="-660"/>
    <component base="blob3" xScale="0.544" yScale="-0.544" xOffset="780" yOffset="895"/>
    <component base="blob4" xScale="0.7779" yScale="-0.7779" xOffset="725" yOffset="665"/>
    <component base="blob5" xScale="0.8886" yScale="-0.8886" xOffset="513" yOffset="623"/>
    <component base="blob6" xScale="0.7136" yScale="-0.7136" xOffset="364" yOffset="501"/>
    <component base="blob7" xScale="1.0734" yScale="-1.0734" xOffset="499" yOffset="320"/>
    <component base="blob8" xScale="0.7856" yScale="-0.7856" xOffset="695" yOffset="225"/>
    <component base="blob9" xScale="0.4869" yScale="-0.4869" xOffset="864" yOffset="337"/>
    <contour>
      <point x="627" y="1147" type="move" name="above"/>
    </contour>
    <contour>
      <point x="627" y="0" type="move" name="below"/>
    </contour>
    <contour>
      <point x="627" y="0" type="move" name="cedilla"/>
    </contour>
    <contour>
      <point x="0" y="1520" type="move" name="half"/>
    </contour>
    <contour>
      <point x="628" y="0" type="move" name="ogonek"/>
    </contour>
  </outline>
</glyph>
<glyph name="uni025C" format="1">
  <advance width="1089"/>
  <unicode hex="025C"/>
  <outline>
    <component base="uni0437"/>
    <contour>
      <point x="576" y="1147" type="move" name="above"/>
    </contour>
    <contour>
      <point x="576" y="0" type="move" name="below"/>
    </contour>
  </outline>
</glyph>
<glyph name="uni0299" format="1">
  <advance width="1187"/>
  <unicode hex="0299"/>
  <outline>
    <component base="uni0432"/>
    <contour>
      <point x="609" y="1147" type="move" name="above"/>
    </contour>
    <contour>
      <point x="609" y="0" type="move" name="below"/>
    </contour>
  </outline>
</glyph>
<glyph name="uni030A" format="1">
  <advance width="0"/>
  <unicode hex="030A"/>
  <outline>
    <component base="ring" xOffset="-1026"/>
    <contour>
      <point x="-512" y="1147" type="move" name="_above"/>
    </contour>
    <contour>
      <point x="-512" y="1147" type="move" name="_above-mark"/>
    </contour>
    <contour>
      <point x="-512" y="1796" type="move" name="above-mark"/>
    </contour>
  </outline>
</glyph>
<glyph name="uni0312" format="1">
  <advance width="0"/>
  <unicode hex="0312"/>
  <outline>
    <contour>
      <point x="-270" y="1001" type="line"/>
      <point x="-481" y="1001" type="line"/>
      <point x="-317" y="1320" type="line"/>
      <point x="-188" y="1320" type="line"/>
    </contour>
    <contour>
      <point x="-374" y="879" type="move" name="_above"/>
    </contour>
  </outline>
</glyph>
<glyph name="uni032D" format="1">
  <advance width="0"/>
  <unicode hex="032D"/>
  <outline>
    <component base="circumflex" xOffset="-1026" yOffset="-1754"/>
    <contour>
      <point x="-512" y="-1" type="move" name="_Ligature below"/>
    </contour>
    <contour>
      <point x="-512" y="-1" type="move" name="_below"/>
    </contour>
    <contour>
      <point x="-512" y="0" type="move" name="_below-mark"/>
    </contour>
    <contour>
      <point x="-512" y="-491" type="move" name="below-mark"/>
    </contour>
  </outline>
</glyph>
<glyph name="uni032F" format="1">
  <advance width="0"/>
  <unicode hex="032F"/>
  <outline>
    <contour>
      <point x="-207" y="-458" type="qcurve"/>
      <point x="-325" y="-458" type="line"/>
      <point x="-336" y="-383"/>
      <point x="-433" y="-308"/>
      <point x="-520" y="-308" type="qcurve" smooth="yes"/>
      <point x="-606" y="-308"/>
      <point x="-702" y="-382"/>
      <point x="-715" y="-458" type="qcurve"/>
      <point x="-833" y="-458" type="line"/>
      <point x="-823" y="-315"/>
      <point x="-665" y="-171"/>
      <point x="-520" y="-171" type="qcurve" smooth="yes"/>
      <point x="-375" y="-171"/>
      <point x="-217" y="-315"/>
    </contour>
    <contour>
      <point x="-512" y="-1" type="move" name="_Ligature below"/>
    </contour>
    <contour>
      <point x="-512" y="-1" type="move" name="_below"/>
    </contour>
    <contour>
      <point x="-512" y="0" type="move" name="_below-mark"/>
    </contour>
    <contour>
      <point x="-512" y="-456" type="move" name="below-mark"/>
    </contour>
  </outline>
</glyph>
<glyph name="uni0349" format="1">
  <advance width="0"/>
  <unicode hex="0349"/>
  <outline>
    <contour>
      <point x="-737" y="-42" type="line"/>
      <point x="-287" y="-42" type="line"/>
      <point x="-287" y="-492" type="line"/>
      <point x="-437" y="-492" type="line"/>
      <point x="-437" y="-192" type="line"/>
      <point x="-737" y="-192" type="line"/>
    </contour>
    <contour>
      <point x="-512" y="-1" type="move" name="_Ligature below"/>
    </contour>
    <contour>
      <point x="-512" y="-1" type="move" name="_below"/>
    </contour>
    <contour>
      <point x="-512" y="0" type="move" name="_below-mark"/>
    </contour>
    <contour>
      <point x="-512" y="-498" type="move" name="below-mark"/>
    </contour>
  </outline>
</glyph>
<glyph name="uni062B" format="1">
  <advance width="1928"/>
  <unicode hex="062B"/>
  <outline>
    <component base="uni066E"/>
    <component base="arabic_3dots" xOffset="700" yOffset="650"/>
    <contour>
      <point x="900" y="1100" type="move" name="rtl-above"/>
    </contour>
    <contour>
      <point x="900" y="-150" type="move" name="rtl-below"/>
    </contour>
  </outline>
</glyph>
<glyph name="uni0650" format="1">
  <advance width="0"/>
  <unicode hex="0650"/>
  <outline>
    <contour>
      <point x="220" y="-280" type="line"/>
      <point x="220" y="-170" type="line"/>
      <point x="804" y="-40" type="line"/>
      <point x="804" y="-150" type="line"/>
    </contour>
    <contour>
      <point x="512" y="0" type="move" name="_Ligature rtl-below"/>
    </contour>
    <contour>
      <point x="512" y="0" type="move" name="_rtl-below"/>
    </contour>
    <contour>
      <point x="512" y="0" type="move" name="_rtl-below-mark"/>
    </contour>
    <contour>
      <point x="512" y="-300" type="move" name="rtl-below-mark"/>
    </contour>
  </outline>
</glyph>
<glyph name="uni0654" format="1">
  <advance width="0"/>
  <unicode hex="0654"/>
  <outline>
    <component base="uni0674" xOffset="213" yOffset="-115"/>
    <contour>
      <point x="512" y="1200" type="move" name="_Ligature rtl-above"/>
    </contour>
    <contour>
      <point x="512" y="1200" type="move" name="_rtl-above"/>
    </contour>
    <contour>
      <point x="512" y="1200" type="move" name="_rtl-above-mark"/>
    </contour>
    <contour>
      <point x="512" y="1700" type="move" name="rtl-above-mark"/>
    </contour>
  </outline>
</glyph>
<glyph name="uni0691" format="1">
  <advance width="989"/>
  <unicode hex="0691"/>
  <outline>
    <component base="uni0615" xOffset="188" yOffset="-450"/>
    <component base="uni0631"/>
    <contour>
      <point x="700" y="1400" type="move" name="rtl-above"/>
    </contour>
    <contour>
      <point x="500" y="-500" type="move" name="rtl-below"/>
    </contour>
  </outline>
</glyph>
<glyph name="uni06B6" format="1">
  <advance width="1488"/>
  <unicode hex="06B6"/>
  <outline>
    <component base="uni0644"/>
    <component base="arabic_dot" xOffset="1130" yOffset="1800"/>
    <contour>
      <point x="1212" y="2100" type="move" name="rtl-above"/>
    </contour>
    <contour>
      <point x="700" y="-450" type="move" name="rtl-below"/>
    </contour>
  </outline>
</glyph>
<glyph name="uni07CE" format="1">
  <advance width="1339"/>
  <unicode hex="07CE"/>
  <outline>
    <contour>
      <point x="1153" y="0" type="line"/>
      <point x="186" y="0" type="line"/>
      <point x="186" y="881" type="line"/>
      <point x="371" y="881" type="line"/>
      <point x="371" y="147" type="line"/>
      <point x="968" y="147" type="line"/>
      <point x="968" y="881" type="line"/>
      <point x="1153" y="881" type="line"/>
    </contour>
    <contour>
      <point x="669" y="1520" type="move" name="rtl-above"/>
    </contour>
    <contour>
      <point x="669" y="0" type="move" name="rtl-below"/>
    </contour>
  </outline>
</glyph>
<glyph name="uni07D3" format="1">
  <advance width="897"/>
  <unicode hex="07D3"/>
  <outline>
    <contour>
      <point x="377" y="735" type="line"/>
      <point x="377" y="0" type="line"/>
      <point x="193" y="0" type="line"/>
      <point x="193" y="1493" type="line"/>
      <point x="836" y="1493" type="line"/>
      <point x="836" y="1346" type="line"/>
      <point x="377" y="1346" type="line"/>
      <point x="377" y="881" type="line"/>
      <point x="836" y="881" type="line"/>
      <point x="836" y="735" type="line"/>
    </contour>
    <contour>
      <point x="531" y="1520" type="move" name="rtl-above"/>
    </contour>
    <contour>
      <point x="278" y="0" type="move" name="rtl-below"/>
    </contour>
  </outline>
</glyph>
<glyph name="uni1D0E" format="1">
  <advance width="1331"/>
  <unicode hex="1D0E"/>
  <outline>
    <component base="uni0438"/>
    <contour>
      <point x="642" y="1147" type="move" name="above"/>
    </contour>
    <contour>
      <point x="642" y="0" type="move" name="below"/>
    </contour>
  </outline>
</glyph>
<glyph name="uni1D10" format="1">
  <advance width="1125"/>
  <unicode hex="1D10"/>
  <outline>
    <component base="uni0254"/>
    <contour>
      <point x="433" y="1147" type="move" name="above"/>
    </contour>
    <contour>
      <point x="433" y="0" type="move" name="below"/>
    </contour>
  </outline>
</glyph>
<glyph name="uni1DC8" format="1">
  <advance width="0"/>
  <unicode hex="1DC8"/>
  <outline>
    <contour>
      <point x="-459" y="1638" type="line"/>
      <point x="-311" y="1638" type="line"/>
      <point x="-66" y="1262" type="line"/>
      <point x="-205" y="1262" type="line"/>
      <point x="-385" y="1507" type="line"/>
      <point x="-565" y="1262" type="line"/>
      <point x="-713" y="1262" type="line"/>
      <point x="-958" y="1638" type="line"/>
      <point x="-819" y="1638" type="line"/>
      <point x="-639" y="1393" type="line"/>
    </contour>
    <contour>
      <point x="-512" y="1147" type="move" name="_above"/>
    </contour>
    <contour>
      <point x="-512" y="1147" type="move" name="_above-mark"/>
    </contour>
    <contour>
      <point x="-512" y="1640" type="move" name="above-mark"/>
    </contour>
  </outline>
</glyph>
<glyph name="uni1E13" format="1">
  <advance width="1300"/>
  <unicode hex="1E13"/>
  <outline>
    <component base="uni032D" xOffset="1126" yOffset="1"/>
    <component base="d"/>
    <contour>
      <point x="1022" y="1520" type="move" name="above"/>
    </contour>
    <contour>
      <point x="614" y="-491" type="move" name="below"/>
    </contour>
    <contour>
      <point x="0" y="1520" type="move" name="half"/>
    </contour>
  </outline>
</glyph>
<glyph name="uniA650" format="1">
  <advance width="2107"/>
  <unicode hex="A650"/>
  <outline>
    <component base="uni042A"/>
    <component base="I" xOffset="1503"/>
    <contour>
      <point x="1203" y="1520" type="move" name="above"/>
    </contour>
  </outline>
</glyph>
<glyph name="uniA738" format="1">
  <advance width="1989"/>
  <unicode hex="A738"/>
  <outline>
    <contour>
      <point x="700" y="1294" type="line"/>
      <point x="426" y="551" type="line"/>
      <point x="975" y="551" type="line"/>
    </contour>
    <contour>
      <point x="1174" y="0" type="line"/>
      <point x="1038" y="383" type="line"/>
      <point x="365" y="383" type="line"/>
      <point x="229" y="0" type="line"/>
      <point x="16" y="0" type="line"/>
      <point x="586" y="1493" type="line"/>
      <point x="815" y="1493" type="line"/>
      <point x="1291" y="244" type="line"/>
      <point x="1762" y="1493" type="line"/>
      <point x="1972" y="1493" type="line"/>
      <point x="1403" y="0" type="line"/>
    </contour>
    <contour>
      <point x="1020" y="1520" type="move" name="above"/>
    </contour>
    <contour>
      <point x="1020" y="0" type="move" name="below"/>
    </contour>
    <contour>
      <point x="0" y="1520" type="move" name="half"/>
    </contour>
  </outline>
</glyph>
<glyph name="uniA740" format="1">
  <advance width="1343"/>
  <unicode hex="A740"/>
  <outline>
    <contour>
      <point x="201" y="1493" type="line"/>
      <point x="403" y="1493" type="line"/>
      <point x="403" y="1307.7" type="line"/>
      <point x="594" y="1307.7" type="line"/>
      <point x="594" y="1137.7" type="line"/>
      <point x="403" y="1137.7" type="line"/>
      <point x="403" y="862" type="line"/>
      <point x="1073" y="1493" type="line"/>
      <point x="1333" y="1493" type="line"/>
      <point x="592" y="797" type="line"/>
      <point x="1386" y="0" type="line"/>
      <point x="1120" y="0" type="line"/>
      <point x="403" y="719" type="line"/>
      <point x="403" y="0" type="line"/>
      <point x="201" y="0" type="line"/>
      <point x="201" y="1137.7" type="line"/>
      <point x="10" y="1137.7" type="line"/>
      <point x="10" y="1307.7" type="line"/>
      <point x="201" y="1307.7" type="line"/>
    </contour>
    <contour>
      <point x="670" y="1520" type="move" name="above"/>
    </contour>
    <contour>
      <point x="670" y="0" type="move" name="below"/>
    </contour>
    <contour>
      <point x="0" y="1520" type="move" name="half"/>
    </contour>
  </outline>
</glyph>
<glyph name="uniA756" format="1">
  <advance width="1612"/>
  <unicode hex="A756"/>
  <outline>
    <contour>
      <point x="807" y="1356" type="qcurve" smooth="yes"/>
      <point x="587" y="1356"/>
      <point x="328" y="1028"/>
      <point x="328" y="745" type="qcurve" smooth="yes"/>
      <point x="328" y="463"/>
      <point x="587" y="135"/>
      <point x="807" y="135" type="qcurve" smooth="yes"/>
      <point x="1027" y="135"/>
      <point x="1284" y="463"/>
      <point x="1284" y="745" type="qcurve" smooth="yes"/>
      <point x="1284" y="1028"/>
      <point x="1027" y="1356"/>
    </contour>
    <contour>
      <point x="900" y="-364" type="line"/>
      <point x="828" y="-239" type="line"/>
      <point x="998" y="-141" type="line"/>
      <point x="891" y="-25" type="line"/>
      <point x="840" y="-28" type="line" smooth="yes"/>
      <point x="822" y="-29"/>
      <point x="807" y="-29" type="qcurve" smooth="yes"/>
      <point x="492" y="-29"/>
      <point x="115" y="392"/>
      <point x="115" y="745" type="qcurve" smooth="yes"/>
      <point x="115" y="1099"/>
      <point x="492" y="1520"/>
      <point x="807" y="1520" type="qcurve" smooth="yes"/>
      <point x="1121" y="1520"/>
      <point x="1497" y="1099"/>
      <point x="1497" y="745" type="qcurve" smooth="yes"/>
      <point x="1497" y="485"/>
      <point x="1288" y="115"/>
      <point x="1090" y="27" type="qcurve"/>
      <point x="1159" y="-48" type="line"/>
      <point x="1374" y="76" type="line"/>
      <point x="1446" y="-49" type="line"/>
      <point x="1258" y="-157" type="line"/>
      <point x="1356" y="-264" type="line"/>
      <point x="1112" y="-264" type="line"/>
      <point x="1098" y="-249" type="line"/>
    </contour>
    <contour>
      <point x="807" y="1520" type="move" name="above"/>
    </contour>
    <contour>
      <point x="807" y="0" type="move" name="below"/>
    </contour>
    <contour>
      <point x="0" y="1520" type="move" name="half"/>
    </contour>
  </outline>
</glyph>
<glyph name="uniFB70" format="1">
  <advance width="979"/>
  <unicode hex="FB70"/>
  <outline>
    <component base="uni06A1.init"/>
    <component base="arabic_4dots" xOffset="300" yOffset="1400"/>
    <contour>
      <point x="500" y="1600" type="move" name="rtl-above"/>
    </contour>
    <contour>
      <point x="500" y="-150" type="move" name="rtl-below"/>
    </contour>
  </outline>
</glyph>
<glyph name="uniFB92" format="1">
  <advance width="1833"/>
  <unicode hex="FB92"/>
  <outline>
    <component base="arabic_gaf_bar" xOffset="970"/>
    <component base="uni06A9"/>
    <contour>
      <point x="500" y="1400" type="move" name="rtl-above"/>
    </contour>
    <contour>
      <point x="800" y="-150" type="move" name="rtl-below"/>
    </contour>
  </outline>
</glyph>
<glyph name="uniFB99" format="1">
  <advance width="1131"/>
  <unicode hex="FB99"/>
  <outline>
    <component base="uniFB95"/>
    <component base="arabic_2dots_a" xOffset="325" yOffset="-300"/>
    <contour>
      <point x="250" y="1700" type="move" name="rtl-above"/>
    </contour>
    <contour>
      <point x="400" y="-650" type="move" name="rtl-below"/>
    </contour>
  </outline>
</glyph>
<glyph name="uniFBDC" format="1">
  <advance width="1058"/>
  <unicode hex="FBDC"/>
  <outline>
    <component base="uniFEEE"/>
    <component base="uni0670" xOffset="-20" yOffset="-485"/>
    <contour>
      <point x="500" y="1450" type="move" name="rtl-above"/>
    </contour>
    <contour>
      <point x="500" y="-500" type="move" name="rtl-below"/>
    </contour>
  </outline>
</glyph>
<glyph name="uniFE8F" format="1">
  <advance width="1928"/>
  <unicode hex="FE8F"/>
  <outline>
    <component base="arabic_dot" xOffset="825" yOffset="-350"/>
    <component base="uni066E"/>
    <contour>
      <point x="900" y="1000" type="move" name="rtl-above"/>
    </contour>
    <contour>
      <point x="900" y="-400" type="move" name="rtl-below"/>
    </contour>
  </outline>
</glyph>
<glyph name="uniFEC5" format="1">
  <advance width="1894"/>
  <unicode hex="FEC5"/>
  <outline>
    <component base="arabic_dot" xOffset="975" yOffset="850"/>
    <component base="uni0637"/>
    <contour>
      <point x="603" y="1650" type="move" name="rtl-above"/>
    </contour>
    <contour>
      <point x="603" y="-150" type="move" name="rtl-below"/>
    </contour>
  </outline>
</glyph>
<glyph name="uniFEC7" format="1">
  <advance width="1630"/>
  <unicode hex="FEC7"/>
  <outline>
    <component base="uniFEC3"/>
    <component base="arabic_dot" xOffset="711" yOffset="850"/>
    <contour>
      <point x="339" y="1650" type="move" name="rtl-above"/>
    </contour>
    <contour>
      <point x="339" y="-150" type="move" name="rtl-below"/>
    </contour>
  </outline>
</glyph>
<glyph name="uniFECE" format="1">
  <advance width="1090"/>
  <unicode hex="FECE"/>
  <outline>
    <component base="uniFECA"/>
    <component base="arabic_dot" xOffset="425" yOffset="950"/>
    <contour>
      <point x="500" y="1150" type="move" name="rtl-above"/>
    </contour>
    <contour>
      <point x="727" y="-600" type="move" name="rtl-below"/>
    </contour>
  </outline>
</glyph>
<glyph name="Doublegrave" format="1">
  <advance width="0"/>
  <outline>
    <contour>
      <point x="-761" y="1526" type="line"/>
      <point x="-565" y="1262" type="line"/>
      <point x="-718" y="1262" type="line"/>
      <point x="-946" y="1526" type="line"/>
    </contour>
    <contour>
      <point x="-426" y="1526" type="line"/>
      <point x="-230" y="1262" type="line"/>
      <point x="-383" y="1262" type="line"/>
      <point x="-611" y="1526" type="line"/>
    </contour>
    <contour>
      <point x="-512" y="1147" type="move" name="_above"/>
    </contour>
    <contour>
      <point x="-512" y="1147" type="move" name="_above-mark"/>
    </contour>
    <contour>
      <point x="-512" y="1528" type="move" name="above-mark"/>
    </contour>
  </outline>
</glyph>
<glyph name="uni0682.medi" format="1">
  <advance width="1322"/>
  <outline>
    <component base="uniFEA4"/>
    <component base="arabic_2dots_a" xOffset="525" yOffset="1200"/>
    <contour>
      <point x="600" y="1400" type="move" name="rtl-above"/>
    </contour>
    <contour>
      <point x="600" y="-100" type="move" name="rtl-below"/>
    </contour>
  </outline>
</glyph>
<glyph name="uni069A.medi" format="1">
  <advance width="1827"/>
  <outline>
    <component base="uniFEB4"/>
    <component base="arabic_dot" xOffset="775" yOffset="850"/>
    <component base="arabic_dot" xOffset="925" yOffset="-350"/>
    <contour>
      <point x="850" y="1050" type="move" name="rtl-above"/>
    </contour>
    <contour>
      <point x="1000" y="-400" type="move" name="rtl-below"/>
    </contour>
  </outline>
</glyph>
<glyph name="uni06AC.fina" format="1">
  <advance width="1726"/>
  <outline>
    <component base="uniFEDA"/>
    <component base="arabic_dot" xOffset="750" yOffset="1350"/>
    <contour>
      <point x="825" y="1550" type="move" name="rtl-above"/>
    </contour>
    <contour>
      <point x="800" y="-200" type="move" name="rtl-below"/>
    </contour>
  </outline>
</glyph>
<glyph name="uni06B5.medi" format="1">
  <advance width="678"/>
  <outline>
    <component base="uni065A" xOffset="-173" yOffset="400"/>
    <component base="uniFEE0"/>
    <contour>
      <point x="339" y="2100" type="move" name="rtl-above"/>
    </contour>
    <contour>
      <point x="339" y="-100" type="move" name="rtl-below"/>
    </contour>
  </outline>
</glyph>
<glyph name="uni07D4.fina" format="1">
  <advance width="897"/>
  <outline>
    <contour>
      <point x="520" y="0" type="line"/>
      <point x="520" y="735" type="line"/>
      <point x="61" y="735" type="line"/>
      <point x="61" y="881" type="line"/>
      <point x="520" y="881" type="line"/>
      <point x="520" y="1346" type="line"/>
      <point x="61" y="1346" type="line"/>
      <point x="61" y="1493" type="line"/>
      <point x="704" y="1493" type="line"/>
      <point x="704" y="147" type="line"/>
      <point x="917" y="147" type="line"/>
      <point x="917" y="0" type="line"/>
    </contour>
    <contour>
      <point x="366" y="1520" type="move" name="rtl-above"/>
    </contour>
    <contour>
      <point x="619" y="0" type="move" name="rtl-below"/>
    </contour>
  </outline>
</glyph>
